<svg version="1.1" xmlns="http://www.w3.org/2000/svg" xmlns:xlink="http://www.w3.org/1999/xlink" width="32.5" height="242.33334" viewBox="0,0,32.5,242.33334"><g transform="translate(-223.75,-58.90475)"><g data-paper-data="{&quot;isPaintingLayer&quot;:true}" fill-rule="nonzero" stroke-linecap="butt" stroke-linejoin="miter" stroke-miterlimit="10" stroke-dasharray="" stroke-dashoffset="0" style="mix-blend-mode: normal"><path d="M225.50171,73.5c0,-8.05964 6.53363,-14.59328 14.59328,-14.59328c8.05964,0 14.59328,6.53363 14.59328,14.59328c0,8.05964 -6.53363,14.59328 -14.59328,14.59328c-8.05964,0 -14.59328,-6.53363 -14.59328,-14.59328z" fill="#ffffff" stroke="none" stroke-width="0"/><path d="M225.50172,286.5c0,-8.05964 6.53363,-14.59328 14.59328,-14.59328c8.05964,0 14.59328,6.53363 14.59328,14.59328c0,8.05964 -6.53363,14.59328 -14.59328,14.59328c-8.05964,0 -14.59328,-6.53363 -14.59328,-14.59328z" fill="#ffffff" stroke="none" stroke-width="0"/><path d="M225,287.73809v-214.66667c0,0 1.87073,-5.29677 5.31813,-8.88792c3.09317,-3.22214 7.77559,-4.02875 10.14019,-4.02875c2.49495,0 6.52687,1.15288 9.56491,4.56264c3.05033,3.42355 4.97677,8.35403 4.97677,8.35403v214.66667c0,0 -1.64248,4.51321 -4.78473,7.48481c-3.32909,3.14829 -8.23446,4.76519 -10.71527,4.76519c-2.55155,0 -6.37928,-1.50072 -9.34241,-4.53186c-3.02382,-3.09323 -5.15759,-7.71814 -5.15759,-7.71814z" fill="none" stroke="#d8d8d8" stroke-width="2.5"/></g></g></svg>