<svg version="1.1" xmlns="http://www.w3.org/2000/svg" xmlns:xlink="http://www.w3.org/1999/xlink" width="49.3524" height="44.16988" viewBox="0,0,49.3524,44.16988"><g transform="translate(-300.3238,-157.41506)"><g data-paper-data="{&quot;isPaintingLayer&quot;:true}" fill-rule="nonzero" stroke="#ffffff" stroke-linejoin="miter" stroke-miterlimit="10" stroke-dasharray="" stroke-dashoffset="0" style="mix-blend-mode: normal"><path d="M302.3238,175.59736c0,0 8.02677,-15.37811 14.33553,-15.37811c3.26425,0 11.46435,-2.15744 16.40915,0.59506c7.5842,4.22171 14.60771,14.78305 14.60771,14.78305" fill="none" stroke-width="4" stroke-linecap="round"/><path d="M306.36382,180.80546c0,0 6.59671,-12.63834 11.7815,-12.63834c2.68268,0 9.42185,-1.77306 13.48568,0.48905c6.233,3.46956 12.00519,12.14928 12.00519,12.14928" fill="none" stroke-width="4" stroke-linecap="round"/><path d="M311.05544,185.87405c0,0 5.02827,-9.63342 8.98031,-9.63342c2.04484,0 7.18169,-1.35149 10.2793,0.37278c4.75103,2.64463 9.1508,9.26064 9.1508,9.26064" fill="none" stroke-width="4" stroke-linecap="round"/><path d="M313.79222,192.18998c0,0 3.96726,-7.60068 7.08538,-7.60068c1.61336,0 5.66628,-1.06632 8.11026,0.29412c3.74851,2.08659 7.21991,7.30657 7.21991,7.30657" fill="none" stroke-width="4" stroke-linecap="round"/><path d="M329.89435,196.07656c0,2.48991 -2.19127,4.50838 -4.89435,4.50838c-2.70308,0 -4.89435,-2.01847 -4.89435,-4.50838c0,-2.48991 2.19127,-4.50838 4.89435,-4.50838c2.70308,0 4.89435,2.01847 4.89435,4.50838z" fill="#ffffff" stroke-width="2" stroke-linecap="butt"/></g></g></svg>